<?xml version="1.0" encoding="utf-8"?>
<!-- Svg Vector Icons : http://www.onlinewebfonts.com/icon -->
<!DOCTYPE svg PUBLIC "-//W3C//DTD SVG 1.1//EN" "http://www.w3.org/Graphics/SVG/1.1/DTD/svg11.dtd">
<svg version="1.1" xmlns="http://www.w3.org/2000/svg" xmlns:xlink="http://www.w3.org/1999/xlink" x="0px" y="0px" viewBox="0 0 1000 1000" enable-background="new 0 0 1000 1000" xml:space="preserve">
<metadata> Svg Vector Icons : http://www.onlinewebfonts.com/icon </metadata>
<g><g><path fill="white" d="M338.9,526.9c107.5,0,194.7-87.2,194.7-194.7c0-107.5-87.2-194.7-194.7-194.7c-107.5,0-194.7,87.2-194.7,194.7C144.2,439.7,231.4,526.9,338.9,526.9z M431.1,409.1c-8.9,29.3-46.8,51.3-92.2,51.3s-83.4-22-92.2-51.3H431.1z M990,607.7v51.1c0,7.6-5.6,16.4-12.5,19.4c-26.8,11.9-99.9,36.3-249.3,36.3c-7.2,0-14-0.1-20.8-0.2c-6.6-108.2-88.6-197.3-197.1-212c23.4-23.4,54.3-39.3,88.7-43.2c2.3-0.3,5.6,0.7,7.5,2c34.3,24.8,76.3,39.6,121.7,39.6c45.5,0,87.4-14.8,121.7-39.6c1.8-1.3,5.2-2.3,7.5-2C931.7,467.7,990,531.1,990,607.7z M667.8,728.2v64.2c0,9.5-7,20.6-15.7,24.4c-33.7,15-125.5,45.7-313.2,45.7c-187.7,0-279.5-30.7-313.2-45.7C17,812.9,10,801.9,10,792.4v-64.2c0-96.2,73.2-175.9,166.6-186.6c2.8-0.3,7,0.9,9.4,2.6c43.1,31.2,95.8,49.8,152.9,49.8c57.1,0,109.8-18.6,152.9-49.8c2.3-1.7,6.5-2.9,9.4-2.6C594.6,552.3,667.8,632.1,667.8,728.2z M728.2,137.5c-85.6,0-154.9,69.4-154.9,154.9c0,85.6,69.4,154.9,154.9,154.9c85.6,0,154.9-69.4,154.9-154.9C883.2,206.9,813.8,137.5,728.2,137.5z M728.2,393.1c-37.3,0-68.4-18.1-75.7-42.1h151.4C796.7,375,765.5,393.1,728.2,393.1z"/></g><g></g><g></g><g></g><g></g><g></g><g></g><g></g><g></g><g></g><g></g><g></g><g></g><g></g><g></g><g></g></g>
</svg>